<svg id="Layer_1" enable-background="new 0 0 479.914 479.914" height="512" viewBox="0 0 479.914 479.914" width="512" xmlns="http://www.w3.org/2000/svg"><path d="m220.86 215.794c-11.32-6.57-18.94-18.84-18.94-32.88 0-20.99 17.01-38 38-38s38 17.01 38 38c0 29.287-31.846 47.558-57.06 32.88z" fill="#fe4f60"/><path d="m243.674 164.26c-10.182 3.94-18.472 12.224-22.414 22.413-3.977 10.282-19.171 7.84-19.336-3.184-.317-21.148 16.714-38.575 37.996-38.575 11.909 0 13.95 15.4 3.754 19.346z" fill="#ff6d7a"/><g><path d="m306.389 260.696c3.125 3.125 8.189 3.124 11.313 0 42.988-42.988 42.994-112.57 0-155.563-42.889-42.89-112.675-42.89-155.563 0-29 29-39.44 71.362-27.245 110.554 1.313 4.218 5.794 6.574 10.016 5.262 4.219-1.313 6.575-5.797 5.262-10.016-10.423-33.498-1.502-69.703 23.281-94.487 36.651-36.65 96.285-36.65 132.937 0 36.735 36.736 36.739 96.196 0 132.937-3.126 3.123-3.126 8.189-.001 11.313z" fill='#aa2637' /><path d="m158.28 244.597c-3.304 2.934-3.604 7.991-.67 11.294 1.45 1.633 2.973 3.249 4.528 4.804 3.122 3.124 8.188 3.127 11.313.002 3.125-3.124 3.125-8.189.002-11.313-1.333-1.333-2.638-2.718-3.879-4.116-2.935-3.305-7.991-3.605-11.294-.671z" fill='#aa2637'/><path d="m362.494 296.34c-1.457 1.572-2.966 3.14-4.486 4.661-3.125 3.124-3.125 8.189 0 11.313 3.125 3.125 8.189 3.124 11.313 0 1.664-1.663 3.315-3.379 4.909-5.099 3.003-3.241 2.81-8.303-.431-11.306-3.241-3.002-8.302-2.81-11.305.431z" fill='#aa2637' /><path d="m369.321 53.514c-71.352-71.352-187.449-71.352-258.801 0s-71.352 187.449 0 258.801c1.562 1.562 3.609 2.343 5.657 2.343 7.062 0 10.712-8.602 5.657-13.657-65.113-65.113-65.113-171.061 0-236.174s171.061-65.113 236.174 0c52.832 52.832 64.113 135.119 27.435 200.107-2.172 3.848-.813 8.728 3.035 10.899 3.847 2.172 8.728.813 10.899-3.035 38.957-69.026 29.949-159.279-30.056-219.284z" fill='#aa2637' /><path  d="m351.92 463.914h-4.836c-30.62-67.438-54.738-138.109-71.689-210.166-1.191-7.361-10.292-9.272-14.404-3.7-3.93 3.768-27.545 22.9-49.235 40.288 5.593-20.977 10.595-42.111 14.995-63.368 29.765 8.878 59.169-13.586 59.169-44.054 0-25.364-20.636-46-46-46s-46 20.636-46 46c0 4.418 3.582 8 8 8s8-3.582 8-8c0-16.542 13.458-30 30-30s30 13.458 30 30c0 23.1-25.122 37.453-44.966 26.005-4.751-2.837-10.843-.084-11.935 5.274-17.643 86.407-42.421 166.409-80.248 249.721h-4.851c-4.418 0-8 3.582-8 8s3.582 8 8 8h38c4.418 0 8-3.582 8-8s-3.582-8-8-8h-15.602c20.276-45.414 37.616-92.14 51.88-139.784l82.762 49.919-89.828 36.344c-4.096 1.657-6.073 6.321-4.416 10.417 1.655 4.09 6.314 6.074 10.417 4.416l96.965-39.232c9.536 26.356 20.017 52.364 31.427 77.922h-15.605c-4.418 0-8 3.582-8 8s3.582 8 8 8h38c4.418 0 8-3.582 8-8s-3.581-8.002-8-8.002zm-92.495-208.855c.005.133.003.105.003.105-.001-.035-.002-.069-.003-.105zm.024.292c.012.177-.013-.06-.017-.16.002.053.013.107.017.16zm.07.655c.007.043.007.087.014.13-.029-.167-.04-.299-.014-.13zm.06.333c-.01-.051-.011-.057 0 0zm-48.097 54.705c13.613-10.876 37.804-30.273 51.273-41.462 7.285 29.52 15.763 58.789 25.372 87.691z" fill='silver' /></g></svg>